<svg width="55" height="62" viewBox="0 0 55 62" fill="none" xmlns="http://www.w3.org/2000/svg">
<g id="Subtract">
<mask id="path-1-inside-1_1_31" fill="white">
<path d="M41 0C41.2794 0 41.5567 0.00925359 41.832 0.0253906L41.7822 0.0498047L12.7822 14.0498L12.5 14.1865V27.8242L12.7959 27.9561L27.2959 34.4561L27.3887 34.498L12.7822 41.5498L12.5 41.6865V55.3242L12.7959 55.4561L27.2959 61.9561L27.3936 62H0V0H41ZM42.5 0.0791016C49.5267 0.827545 55 6.77474 55 14V45C55 54.3888 47.3888 62 38 62H28V48.8232L42.2041 42.4561L42.5 42.3242V27.2031L41.7822 27.5498L28 34.2031V21.3232L42.2041 14.9561L42.5 14.8242V0.0791016Z"/>
</mask>
<path d="M41 0C41.2794 0 41.5567 0.00925359 41.832 0.0253906L41.7822 0.0498047L12.7822 14.0498L12.5 14.1865V27.8242L12.7959 27.9561L27.2959 34.4561L27.3887 34.498L12.7822 41.5498L12.5 41.6865V55.3242L12.7959 55.4561L27.2959 61.9561L27.3936 62H0V0H41ZM42.5 0.0791016C49.5267 0.827545 55 6.77474 55 14V45C55 54.3888 47.3888 62 38 62H28V48.8232L42.2041 42.4561L42.5 42.3242V27.2031L41.7822 27.5498L28 34.2031V21.3232L42.2041 14.9561L42.5 14.8242V0.0791016Z" fill="white"/>
<path d="M41.832 0.0253906L42.2722 0.923311L45.6865 -0.750391L41.8905 -0.972896L41.832 0.0253906ZM41.7822 0.0498047L42.217 0.950373L42.2224 0.947725L41.7822 0.0498047ZM12.7822 14.0498L12.3475 13.1493L12.3463 13.1498L12.7822 14.0498ZM12.5 14.1865L12.064 13.2866L11.5 13.5598V14.1865H12.5ZM12.5 27.8242H11.5V28.4734L12.093 28.7377L12.5 27.8242ZM12.7959 27.9561L13.205 27.0435L13.2029 27.0426L12.7959 27.9561ZM27.2959 34.4561L27.7083 33.545L27.705 33.5435L27.2959 34.4561ZM27.3887 34.498L27.8234 35.3986L29.7492 34.4688L27.801 33.587L27.3887 34.498ZM12.7822 41.5498L12.3475 40.6493L12.3463 40.6498L12.7822 41.5498ZM12.5 41.6865L12.064 40.7866L11.5 41.0598V41.6865H12.5ZM12.5 55.3242H11.5V55.9734L12.093 56.2377L12.5 55.3242ZM12.7959 55.4561L13.205 54.5435L13.2029 54.5426L12.7959 55.4561ZM27.2959 61.9561L27.7063 61.0441L27.705 61.0435L27.2959 61.9561ZM27.3936 62V63L27.8039 61.0881L27.3936 62ZM0 62H-1V63H0V62ZM0 0V-1H-1V0H0ZM42.5 0.0791016L42.6059 -0.915274L41.5 -1.03307V0.0791016H42.5ZM38 62L38 63L38 62ZM28 62H27V63H28V62ZM28 48.8232L27.591 47.9107L27 48.1756V48.8232H28ZM42.2041 42.4561L41.7971 41.5426L41.7951 41.5435L42.2041 42.4561ZM42.5 42.3242L42.907 43.2377L43.5 42.9734V42.3242H42.5ZM42.5 27.2031H43.5V25.6096L42.0651 26.3027L42.5 27.2031ZM41.7822 27.5498L42.217 28.4504L42.2171 28.4503L41.7822 27.5498ZM28 34.2031H27V35.7963L28.4347 35.1037L28 34.2031ZM28 21.3232L27.591 20.4107L27 20.6756V21.3232H28ZM42.2041 14.9561L41.7971 14.0426L41.7951 14.0435L42.2041 14.9561ZM42.5 14.8242L42.907 15.7377L43.5 15.4734V14.8242H42.5ZM41 0V1C41.2573 1 41.515 1.00853 41.7735 1.02368L41.832 0.0253906L41.8905 -0.972896C41.5984 -0.990018 41.3014 -1 41 -1V0ZM41.832 0.0253906L41.3919 -0.87253L41.3421 -0.848116L41.7822 0.0498047L42.2224 0.947725L42.2722 0.923311L41.832 0.0253906ZM41.7822 0.0498047L41.3475 -0.850747L12.3475 13.1493L12.7822 14.0498L13.217 14.9504L42.217 0.950356L41.7822 0.0498047ZM12.7822 14.0498L12.3463 13.1498L12.064 13.2866L12.5 14.1865L12.936 15.0865L13.2182 14.9498L12.7822 14.0498ZM12.5 14.1865H11.5V27.8242H12.5H13.5V14.1865H12.5ZM12.5 27.8242L12.093 28.7377L12.3889 28.8695L12.7959 27.9561L13.2029 27.0426L12.907 26.9108L12.5 27.8242ZM12.7959 27.9561L12.3868 28.8686L26.8868 35.3686L27.2959 34.4561L27.705 33.5435L13.205 27.0435L12.7959 27.9561ZM27.2959 34.4561L26.8835 35.3671L26.9763 35.4091L27.3887 34.498L27.801 33.587L27.7083 33.545L27.2959 34.4561ZM27.3887 34.498L26.9539 33.5975L12.3475 40.6493L12.7822 41.5498L13.217 42.4503L27.8234 35.3986L27.3887 34.498ZM12.7822 41.5498L12.3463 40.6498L12.064 40.7866L12.5 41.6865L12.936 42.5865L13.2182 42.4498L12.7822 41.5498ZM12.5 41.6865H11.5V55.3242H12.5H13.5V41.6865H12.5ZM12.5 55.3242L12.093 56.2377L12.3889 56.3695L12.7959 55.4561L13.2029 54.5426L12.907 54.4108L12.5 55.3242ZM12.7959 55.4561L12.3868 56.3686L26.8868 62.8686L27.2959 61.9561L27.705 61.0435L13.205 54.5435L12.7959 55.4561ZM27.2959 61.9561L26.8855 62.868L26.9832 62.9119L27.3936 62L27.8039 61.0881L27.7063 61.0441L27.2959 61.9561ZM27.3936 62V61H0V62V63H27.3936V62ZM0 62H1V0H0H-1V62H0ZM0 0V1H41V0V-1H0V0ZM42.5 0.0791016L42.3941 1.07348C48.9177 1.76834 54 7.29145 54 14H55H56C56 6.25804 50.1356 -0.113253 42.6059 -0.915274L42.5 0.0791016ZM55 14H54V45H55H56V14H55ZM55 45H54C54 53.8366 46.8366 61 38 61L38 62L38 63C47.9411 63 56 54.9411 56 45H55ZM38 62V61H28V62V63H38V62ZM28 62H29V48.8232H28H27V62H28ZM28 48.8232L28.409 49.7358L42.6131 43.3686L42.2041 42.4561L41.7951 41.5435L27.591 47.9107L28 48.8232ZM42.2041 42.4561L42.6111 43.3695L42.907 43.2377L42.5 42.3242L42.093 41.4108L41.7971 41.5426L42.2041 42.4561ZM42.5 42.3242H43.5V27.2031H42.5H41.5V42.3242H42.5ZM42.5 27.2031L42.0651 26.3027L41.3473 26.6493L41.7822 27.5498L42.2171 28.4503L42.9349 28.1036L42.5 27.2031ZM41.7822 27.5498L41.3475 26.6492L27.5653 33.3026L28 34.2031L28.4347 35.1037L42.217 28.4504L41.7822 27.5498ZM28 34.2031H29V21.3232H28H27V34.2031H28ZM28 21.3232L28.409 22.2358L42.6131 15.8686L42.2041 14.9561L41.7951 14.0435L27.591 20.4107L28 21.3232ZM42.2041 14.9561L42.6111 15.8695L42.907 15.7377L42.5 14.8242L42.093 13.9108L41.7971 14.0426L42.2041 14.9561ZM42.5 14.8242H43.5V0.0791016H42.5H41.5V14.8242H42.5Z" fill="white" mask="url(#path-1-inside-1_1_31)"/>
</g>
</svg>
