<svg width="63" height="70" viewBox="0 0 63 70" fill="none" xmlns="http://www.w3.org/2000/svg">
<g id="Subtract" filter="url(#filter0_d_1_31)">
<mask id="path-1-inside-1_1_31" fill="white">
<path d="M45 0C45.2794 0 45.5567 0.00925359 45.832 0.0253906L45.7822 0.0498047L16.7822 14.0498L16.5 14.1865V27.8242L16.7959 27.9561L31.2959 34.4561L31.3887 34.498L16.7822 41.5498L16.5 41.6865V55.3242L16.7959 55.4561L31.2959 61.9561L31.3936 62H4V0H45ZM46.5 0.0791016C53.5267 0.827545 59 6.77474 59 14V45C59 54.3888 51.3888 62 42 62H32V48.8232L46.2041 42.4561L46.5 42.3242V27.2031L45.7822 27.5498L32 34.2031V21.3232L46.2041 14.9561L46.5 14.8242V0.0791016Z"/>
</mask>
<path d="M45.832 0.0253906L46.2722 0.923311L49.6865 -0.750391L45.8905 -0.972896L45.832 0.0253906ZM45.7822 0.0498047L46.217 0.950373L46.2224 0.947725L45.7822 0.0498047ZM16.7822 14.0498L16.3475 13.1493L16.3463 13.1498L16.7822 14.0498ZM16.5 14.1865L16.064 13.2866L15.5 13.5598V14.1865H16.5ZM16.5 27.8242H15.5V28.4734L16.093 28.7377L16.5 27.8242ZM16.7959 27.9561L17.205 27.0435L17.2029 27.0426L16.7959 27.9561ZM31.2959 34.4561L31.7083 33.545L31.705 33.5435L31.2959 34.4561ZM31.3887 34.498L31.8234 35.3986L33.7492 34.4688L31.801 33.587L31.3887 34.498ZM16.7822 41.5498L16.3475 40.6493L16.3463 40.6498L16.7822 41.5498ZM16.5 41.6865L16.064 40.7866L15.5 41.0598V41.6865H16.5ZM16.5 55.3242H15.5V55.9734L16.093 56.2377L16.5 55.3242ZM16.7959 55.4561L17.205 54.5435L17.2029 54.5426L16.7959 55.4561ZM31.2959 61.9561L31.7063 61.0441L31.705 61.0435L31.2959 61.9561ZM31.3936 62V63L31.8039 61.0881L31.3936 62ZM4 62H3V63H4V62ZM4 0V-1H3V0H4ZM46.5 0.0791016L46.6059 -0.915274L45.5 -1.03307V0.0791016H46.5ZM42 62L42 63L42 62ZM32 62H31V63H32V62ZM32 48.8232L31.591 47.9107L31 48.1756V48.8232H32ZM46.2041 42.4561L45.7971 41.5426L45.7951 41.5435L46.2041 42.4561ZM46.5 42.3242L46.907 43.2377L47.5 42.9734V42.3242H46.5ZM46.5 27.2031H47.5V25.6096L46.0651 26.3027L46.5 27.2031ZM45.7822 27.5498L46.217 28.4504L46.2171 28.4503L45.7822 27.5498ZM32 34.2031H31V35.7963L32.4347 35.1037L32 34.2031ZM32 21.3232L31.591 20.4107L31 20.6756V21.3232H32ZM46.2041 14.9561L45.7971 14.0426L45.7951 14.0435L46.2041 14.9561ZM46.5 14.8242L46.907 15.7377L47.5 15.4734V14.8242H46.5ZM45 0V1C45.2573 1 45.515 1.00853 45.7735 1.02368L45.832 0.0253906L45.8905 -0.972896C45.5984 -0.990018 45.3014 -1 45 -1V0ZM45.832 0.0253906L45.3919 -0.87253L45.3421 -0.848116L45.7822 0.0498047L46.2224 0.947725L46.2722 0.923311L45.832 0.0253906ZM45.7822 0.0498047L45.3475 -0.850747L16.3475 13.1493L16.7822 14.0498L17.217 14.9504L46.217 0.950356L45.7822 0.0498047ZM16.7822 14.0498L16.3463 13.1498L16.064 13.2866L16.5 14.1865L16.936 15.0865L17.2182 14.9498L16.7822 14.0498ZM16.5 14.1865H15.5V27.8242H16.5H17.5V14.1865H16.5ZM16.5 27.8242L16.093 28.7377L16.3889 28.8695L16.7959 27.9561L17.2029 27.0426L16.907 26.9108L16.5 27.8242ZM16.7959 27.9561L16.3868 28.8686L30.8868 35.3686L31.2959 34.4561L31.705 33.5435L17.205 27.0435L16.7959 27.9561ZM31.2959 34.4561L30.8835 35.3671L30.9763 35.4091L31.3887 34.498L31.801 33.587L31.7083 33.545L31.2959 34.4561ZM31.3887 34.498L30.9539 33.5975L16.3475 40.6493L16.7822 41.5498L17.217 42.4503L31.8234 35.3986L31.3887 34.498ZM16.7822 41.5498L16.3463 40.6498L16.064 40.7866L16.5 41.6865L16.936 42.5865L17.2182 42.4498L16.7822 41.5498ZM16.5 41.6865H15.5V55.3242H16.5H17.5V41.6865H16.5ZM16.5 55.3242L16.093 56.2377L16.3889 56.3695L16.7959 55.4561L17.2029 54.5426L16.907 54.4108L16.5 55.3242ZM16.7959 55.4561L16.3868 56.3686L30.8868 62.8686L31.2959 61.9561L31.705 61.0435L17.205 54.5435L16.7959 55.4561ZM31.2959 61.9561L30.8855 62.868L30.9832 62.9119L31.3936 62L31.8039 61.0881L31.7063 61.0441L31.2959 61.9561ZM31.3936 62V61H4V62V63H31.3936V62ZM4 62H5V0H4H3V62H4ZM4 0V1H45V0V-1H4V0ZM46.5 0.0791016L46.3941 1.07348C52.9177 1.76834 58 7.29145 58 14H59H60C60 6.25804 54.1356 -0.113253 46.6059 -0.915274L46.5 0.0791016ZM59 14H58V45H59H60V14H59ZM59 45H58C58 53.8366 50.8366 61 42 61L42 62L42 63C51.9411 63 60 54.9411 60 45H59ZM42 62V61H32V62V63H42V62ZM32 62H33V48.8232H32H31V62H32ZM32 48.8232L32.409 49.7358L46.6131 43.3686L46.2041 42.4561L45.7951 41.5435L31.591 47.9107L32 48.8232ZM46.2041 42.4561L46.6111 43.3695L46.907 43.2377L46.5 42.3242L46.093 41.4108L45.7971 41.5426L46.2041 42.4561ZM46.5 42.3242H47.5V27.2031H46.5H45.5V42.3242H46.5ZM46.5 27.2031L46.0651 26.3027L45.3473 26.6493L45.7822 27.5498L46.2171 28.4503L46.9349 28.1036L46.5 27.2031ZM45.7822 27.5498L45.3475 26.6492L31.5653 33.3026L32 34.2031L32.4347 35.1037L46.217 28.4504L45.7822 27.5498ZM32 34.2031H33V21.3232H32H31V34.2031H32ZM32 21.3232L32.409 22.2358L46.6131 15.8686L46.2041 14.9561L45.7951 14.0435L31.591 20.4107L32 21.3232ZM46.2041 14.9561L46.6111 15.8695L46.907 15.7377L46.5 14.8242L46.093 13.9108L45.7971 14.0426L46.2041 14.9561ZM46.5 14.8242H47.5V0.0791016H46.5H45.5V14.8242H46.5Z" fill="white" mask="url(#path-1-inside-1_1_31)"/>
</g>
<defs>
<filter id="filter0_d_1_31" x="0" y="0" width="63" height="70" filterUnits="userSpaceOnUse" color-interpolation-filters="sRGB">
<feFlood flood-opacity="0" result="BackgroundImageFix"/>
<feColorMatrix in="SourceAlpha" type="matrix" values="0 0 0 0 0 0 0 0 0 0 0 0 0 0 0 0 0 0 127 0" result="hardAlpha"/>
<feOffset dy="4"/>
<feGaussianBlur stdDeviation="2"/>
<feColorMatrix type="matrix" values="0 0 0 0 0 0 0 0 0 0 0 0 0 0 0 0 0 0 0.25 0"/>
<feBlend mode="normal" in2="BackgroundImageFix" result="effect1_dropShadow_1_31"/>
<feBlend mode="normal" in="SourceGraphic" in2="effect1_dropShadow_1_31" result="shape"/>
</filter>
</defs>
</svg>
